<svg xmlns="http://www.w3.org/2000/svg" xmlns:xlink="http://www.w3.org/1999/xlink" id="Layer_1" width="28" height="28" x="0" y="0" enable-background="new 0 0 28 28" version="1.1" viewBox="0 0 28 28" xml:space="preserve"><g><g><path fill="#59A8DD" d="M23.221,4.804c-5.076-5.072-13.337-5.072-18.413,0c-5.077,5.072-5.077,13.324,0,18.395 c5.077,5.071,13.337,5.071,18.414,0S28.297,9.875,23.221,4.804z M21.379,21.359c-4.061,4.058-10.669,4.057-14.73,0 s-4.062-10.659,0-14.716c4.061-4.057,10.669-4.057,14.73,0C25.442,10.7,25.442,17.302,21.379,21.359z M15.317,8.482l-2.604,0 l0,4.219H8.49l0.001,2.601h4.222l0,4.218l2.604,0.001v-4.219h4.223V12.7l-4.223,0V8.482z"/></g></g></svg>